<svg width="800" height="600" xmlns="http://www.w3.org/2000/svg">
  <rect width="800" height="600" fill="white"/>
  <g stroke="#e0e0e0" stroke-width="0.5">
    <line x1="50" y1="50" x2="50" y2="550"/>
    <line x1="120" y1="50" x2="120" y2="550"/>
    <line x1="190" y1="50" x2="190" y2="550"/>
    <line x1="260" y1="50" x2="260" y2="550"/>
    <line x1="330" y1="50" x2="330" y2="550"/>
    <line x1="400" y1="50" x2="400" y2="550"/>
    <line x1="470" y1="50" x2="470" y2="550"/>
    <line x1="540" y1="50" x2="540" y2="550"/>
    <line x1="610" y1="50" x2="610" y2="550"/>
    <line x1="680" y1="50" x2="680" y2="550"/>
    <line x1="750" y1="50" x2="750" y2="550"/>
    <line x1="50" y1="50" x2="750" y2="50"/>
    <line x1="50" y1="100" x2="750" y2="100"/>
    <line x1="50" y1="150" x2="750" y2="150"/>
    <line x1="50" y1="200" x2="750" y2="200"/>
    <line x1="50" y1="250" x2="750" y2="250"/>
    <line x1="50" y1="300" x2="750" y2="300"/>
    <line x1="50" y1="350" x2="750" y2="350"/>
    <line x1="50" y1="400" x2="750" y2="400"/>
    <line x1="50" y1="450" x2="750" y2="450"/>
    <line x1="50" y1="500" x2="750" y2="500"/>
    <line x1="50" y1="550" x2="750" y2="550"/>
  </g>
  <g stroke="black" stroke-width="2">
    <line x1="50" y1="300" x2="750" y2="300"/>
    <line x1="400" y1="50" x2="400" y2="550"/>
  </g>
  <g stroke="blue" stroke-width="1,5" fill="none">
    <polyline points="50,00,300,00 51,40,295,83 52,81,291,65 54,21,287,49 55,61,283,33 57,01,279,18 58,42,275,05 59,82,270,93 61,22,266,83 62,63,262,75 64,03,258,69 65,43,254,66 66,83,250,66 68,24,246,69 69,64,242,75 71,04,238,85 72,44,234,99 73,85,231,17 75,25,227,40 76,65,223,67 78,06,219,99 79,46,216,35 80,86,212,78 82,26,209,25 83,67,205,79 85,07,202,38 86,47,199,04 87,88,195,76 89,28,192,55 90,68,189,40 92,08,186,33 93,49,183,33 94,89,180,40 96,29,177,54 97,70,174,77 99,10,172,07 100,50,169,46 101,90,166,93 103,31,164,48 104,71,162,12 106,11,159,84 107,52,157,66 108,92,155,56 110,32,153,56 111,72,151,65 113,13,149,83 114,53,148,11 115,93,146,49 117,33,144,96 118,74,143,53 120,14,142,20 121,54,140,97 122,95,139,84 124,35,138,81 125,75,137,89 127,15,137,06 128,56,136,35 129,96,135,73 131,36,135,22 132,77,134,81 134,17,134,51 135,57,134,31 136,97,134,22 138,38,134,23 139,78,134,35 141,18,134,58 142,59,134,90 143,99,135,34 145,39,135,87 146,79,136,52 148,20,137,26 149,60,138,11 151,00,139,06 152,40,140,11 153,81,141,27 155,21,142,52 156,61,143,88 158,02,145,33 159,42,146,88 160,82,148,53 162,22,150,28 163,63,152,12 165,03,154,05 166,43,156,08 167,84,158,20 169,24,160,40 170,64,162,70 172,04,165,08 173,45,167,55 174,85,170,10 176,25,172,74 177,66,175,46 179,06,178,25 180,46,181,12 181,86,184,07 183,27,187,09 184,67,190,18 186,07,193,35 187,47,196,58 188,88,199,87 190,28,203,23 191,68,206,65 193,09,210,13 194,49,213,67 195,89,217,26 197,29,220,90 198,70,224,60 200,10,228,34 201,50,232,12 202,91,235,95 204,31,239,82 205,71,243,73 207,11,247,68 208,52,251,66 209,92,255,66 211,32,259,70 212,73,263,76 214,13,267,85 215,53,271,95 216,93,276,08 218,34,280,22 219,74,284,37 221,14,288,53 222,55,292,70 223,95,296,87 225,35,301,04 226,75,305,22 228,16,309,39 229,56,313,55 230,96,317,71 232,36,321,86 233,77,325,99 235,17,330,10 236,57,334,20 237,98,338,27 239,38,342,32 240,78,346,34 242,18,350,34 243,59,354,30 244,99,358,23 246,39,362,12 247,80,365,97 249,20,369,78 250,60,373,54 252,00,377,26 253,41,380,93 254,81,384,54 256,21,388,11 257,62,391,62 259,02,395,07 260,42,398,46 261,82,401,78 263,23,405,05 264,63,408,24 266,03,411,37 267,43,414,43 268,84,417,41 270,24,420,32 271,64,423,16 273,05,425,91 274,45,428,59 275,85,431,18 277,25,433,69 278,66,436,12 280,06,438,46 281,46,440,71 282,87,442,87 284,27,444,95 285,67,446,93 287,07,448,81 288,48,450,61 289,88,452,30 291,28,453,90 292,69,455,41 294,09,456,81 295,49,458,12 296,89,459,32 298,30,460,43 299,70,461,43 301,10,462,33 302,51,463,12 303,91,463,82 305,31,464,41 306,71,464,89 308,12,465,27 309,52,465,55 310,92,465,72 312,32,465,79 313,73,465,75 315,13,465,60 316,53,465,35 317,94,465,00 319,34,464,54 320,74,463,98 322,14,463,31 323,55,462,54 324,95,461,66 326,35,460,69 327,76,459,61 329,16,458,43 330,56,457,15 331,96,455,77 333,37,454,29 334,77,452,71 336,17,451,04 337,58,449,27 338,98,447,41 340,38,445,45 341,78,443,40 343,19,441,26 344,59,439,03 345,99,436,71 347,39,434,31 348,80,431,82 350,20,429,24 351,60,426,59 353,01,423,85 354,41,421,04 355,81,418,15 357,21,415,18 358,62,412,14 360,02,409,03 361,42,405,85 362,83,402,61 364,23,399,30 365,63,395,92 367,03,392,49 368,44,388,99 369,84,385,44 371,24,381,84 372,65,378,18 374,05,374,47 375,45,370,72 376,85,366,92 378,26,363,08 379,66,359,20 381,06,355,28 382,46,351,33 383,87,347,34 385,27,343,33 386,67,339,29 388,08,335,22 389,48,331,13 390,88,327,02 392,28,322,89 393,69,318,75 395,09,314,59 396,49,310,43 397,90,306,26 399,30,302,09 400,70,297,91 402,10,293,74 403,51,289,57 404,91,285,41 406,31,281,25 407,72,277,11 409,12,272,98 410,52,268,87 411,92,264,78 413,33,260,71 414,73,256,67 416,13,252,66 417,54,248,67 418,94,244,72 420,34,240,80 421,74,236,92 423,15,233,08 424,55,229,28 425,95,225,53 427,35,221,82 428,76,218,16 430,16,214,56 431,56,211,01 432,97,207,51 434,37,204,08 435,77,200,70 437,17,197,39 438,58,194,15 439,98,190,97 441,38,187,86 442,79,184,82 444,19,181,85 445,59,178,96 446,99,176,15 448,40,173,41 449,80,170,76 451,20,168,18 452,61,165,69 454,01,163,29 455,41,160,97 456,81,158,74 458,22,156,60 459,62,154,55 461,02,152,59 462,42,150,73 463,83,148,96 465,23,147,29 466,63,145,71 468,04,144,23 469,44,142,85 470,84,141,57 472,24,140,39 473,65,139,31 475,05,138,34 476,45,137,46 477,86,136,69 479,26,136,02 480,66,135,46 482,06,135,00 483,47,134,65 484,87,134,40 486,27,134,25 487,68,134,21 489,08,134,28 490,48,134,45 491,88,134,73 493,29,135,11 494,69,135,59 496,09,136,18 497,49,136,88 498,90,137,67 500,30,138,57 501,70,139,57 503,11,140,68 504,51,141,88 505,91,143,19 507,31,144,59 508,72,146,10 510,12,147,70 511,52,149,39 512,93,151,19 514,33,153,07 515,73,155,05 517,13,157,13 518,54,159,29 519,94,161,54 521,34,163,88 522,75,166,31 524,15,168,82 525,55,171,41 526,95,174,09 528,36,176,84 529,76,179,68 531,16,182,59 532,57,185,57 533,97,188,63 535,37,191,76 536,77,194,95 538,18,198,22 539,58,201,54 540,98,204,93 542,38,208,38 543,79,211,89 545,19,215,46 546,59,219,07 548,00,222,74 549,40,226,46 550,80,230,22 552,20,234,03 553,61,237,88 555,01,241,77 556,41,245,70 557,82,249,66 559,22,253,66 560,62,257,68 562,02,261,73 563,43,265,80 564,83,269,90 566,23,274,01 567,64,278,14 569,04,282,29 570,44,286,45 571,84,290,61 573,25,294,78 574,65,298,96 576,05,303,13 577,45,307,30 578,86,311,47 580,26,315,63 581,66,319,78 583,07,323,92 584,47,328,05 585,87,332,15 587,27,336,24 588,68,340,30 590,08,344,34 591,48,348,34 592,89,352,32 594,29,356,27 595,69,360,18 597,09,364,05 598,50,367,88 599,90,371,66 601,30,375,40 602,71,379,10 604,11,382,74 605,51,386,33 606,91,389,87 608,32,393,35 609,72,396,77 611,12,400,13 612,53,403,42 613,93,406,65 615,33,409,82 616,73,412,91 618,14,415,93 619,54,418,88 620,94,421,75 622,34,424,54 623,75,427,26 625,15,429,90 626,55,432,45 627,96,434,92 629,36,437,30 630,76,439,60 632,16,441,80 633,57,443,92 634,97,445,95 636,37,447,88 637,78,449,72 639,18,451,47 640,58,453,12 641,98,454,67 643,39,456,12 644,79,457,48 646,19,458,73 647,60,459,89 649,00,460,94 650,40,461,89 651,80,462,74 653,21,463,48 654,61,464,13 656,01,464,66 657,41,465,10 658,82,465,42 660,22,465,65 661,62,465,77 663,03,465,78 664,43,465,69 665,83,465,49 667,23,465,19 668,64,464,78 670,04,464,27 671,44,463,65 672,85,462,94 674,25,462,11 675,65,461,19 677,05,460,16 678,46,459,03 679,86,457,80 681,26,456,47 682,67,455,04 684,07,453,51 685,47,451,89 686,87,450,17 688,28,448,35 689,68,446,44 691,08,444,44 692,48,442,34 693,89,440,16 695,29,437,88 696,69,435,52 698,10,433,07 699,50,430,54 700,90,427,93 702,30,425,23 703,71,422,46 705,11,419,60 706,51,416,67 707,92,413,67 709,32,410,60 710,72,407,45 712,12,404,24 713,53,400,96 714,93,397,62 716,33,394,21 717,74,390,75 719,14,387,22 720,54,383,65 721,94,380,01 723,35,376,33 724,75,372,60 726,15,368,83 727,56,365,01 728,96,361,15 730,36,357,25 731,76,353,31 733,17,349,34 734,57,345,34 735,97,341,31 737,37,337,25 738,78,333,17 740,18,329,07 741,58,324,95 742,99,320,82 744,39,316,67 745,79,312,51 747,19,308,35 748,60,304,17 750,00,300,00 "/>
  </g>
  <g stroke="blue" stroke-width="1,5" fill="none">
    <polyline points="50,00,134,21 51,40,134,27 52,81,134,42 54,21,134,69 55,61,135,05 57,01,135,53 58,42,136,10 59,82,136,78 61,22,137,57 62,63,138,45 64,03,139,44 65,43,140,53 66,83,141,73 68,24,143,02 69,64,144,41 71,04,145,90 72,44,147,49 73,85,149,18 75,25,150,96 76,65,152,83 78,06,154,80 79,46,156,86 80,86,159,01 82,26,161,25 83,67,163,58 85,07,166,00 86,47,168,50 87,88,171,08 89,28,173,75 90,68,176,49 92,08,179,32 93,49,182,22 94,89,185,19 96,29,188,24 97,70,191,36 99,10,194,55 100,50,197,80 101,90,201,12 103,31,204,51 104,71,207,95 106,11,211,45 107,52,215,01 108,92,218,62 110,32,222,28 111,72,225,99 113,13,229,75 114,53,233,56 115,93,237,40 117,33,241,29 118,74,245,21 120,14,249,17 121,54,253,16 122,95,257,18 124,35,261,22 125,75,265,29 127,15,269,39 128,56,273,50 129,96,277,63 131,36,281,77 132,77,285,93 134,17,290,09 135,57,294,26 136,97,298,43 138,38,302,61 139,78,306,78 141,18,310,95 142,59,315,11 143,99,319,27 145,39,323,41 146,79,327,53 148,20,331,64 149,60,335,73 151,00,339,79 152,40,343,83 153,81,347,84 155,21,351,83 156,61,355,77 158,02,359,69 159,42,363,56 160,82,367,40 162,22,371,19 163,63,374,94 165,03,378,64 166,43,382,29 167,84,385,89 169,24,389,43 170,64,392,92 172,04,396,35 173,45,399,71 174,85,403,02 176,25,406,25 177,66,409,42 179,06,412,53 180,46,415,56 181,86,418,51 183,27,421,39 184,67,424,20 186,07,426,93 187,47,429,57 188,88,432,13 190,28,434,61 191,68,437,01 193,09,439,31 194,49,441,53 195,89,443,66 197,29,445,70 198,70,447,65 200,10,449,50 201,50,451,25 202,91,452,92 204,31,454,48 205,71,455,95 207,11,457,31 208,52,458,58 209,92,459,75 211,32,460,81 212,73,461,78 214,13,462,64 215,53,463,40 216,93,464,05 218,34,464,60 219,74,465,05 221,14,465,39 222,55,465,63 223,95,465,76 225,35,465,78 226,75,465,70 228,16,465,52 229,56,465,23 230,96,464,84 232,36,464,34 233,77,463,74 235,17,463,03 236,57,462,22 237,98,461,31 239,38,460,29 240,78,459,18 242,18,457,96 243,59,456,64 244,99,455,23 246,39,453,71 247,80,452,10 249,20,450,39 250,60,448,58 252,00,446,68 253,41,444,69 254,81,442,61 256,21,440,43 257,62,438,17 259,02,435,82 260,42,433,38 261,82,430,86 263,23,428,26 264,63,425,57 266,03,422,81 267,43,419,96 268,84,417,04 270,24,414,05 271,64,410,98 273,05,407,85 274,45,404,64 275,85,401,37 277,25,398,04 278,66,394,64 280,06,391,18 281,46,387,67 282,87,384,10 284,27,380,47 285,67,376,80 287,07,373,07 288,48,369,30 289,88,365,49 291,28,361,63 292,69,357,74 294,09,353,80 295,49,349,84 296,89,345,84 298,30,341,82 299,70,337,76 301,10,333,69 302,51,329,59 303,91,325,47 305,31,321,34 306,71,317,19 308,12,313,03 309,52,308,87 310,92,304,70 312,32,300,52 313,73,296,35 315,13,292,17 316,53,288,01 317,94,283,85 319,34,279,70 320,74,275,56 322,14,271,44 323,55,267,34 324,95,263,25 326,35,259,20 327,76,255,16 329,16,251,16 330,56,247,18 331,96,243,24 333,37,239,34 334,77,235,47 336,17,231,65 337,58,227,87 338,98,224,13 340,38,220,44 341,78,216,81 343,19,213,22 344,59,209,69 345,99,206,22 347,39,202,81 348,80,199,46 350,20,196,17 351,60,192,95 353,01,189,79 354,41,186,71 355,81,183,70 357,21,180,76 358,62,177,90 360,02,175,11 361,42,172,41 362,83,169,78 364,23,167,24 365,63,164,78 367,03,162,41 368,44,160,12 369,84,157,93 371,24,155,82 372,65,153,80 374,05,151,88 375,45,150,05 376,85,148,32 378,26,146,68 379,66,145,14 381,06,143,70 382,46,142,36 383,87,141,12 385,27,139,98 386,67,138,94 388,08,138,00 389,48,137,16 390,88,136,43 392,28,135,80 393,69,135,28 395,09,134,86 396,49,134,54 397,90,134,33 399,30,134,23 400,70,134,23 402,10,134,33 403,51,134,54 404,91,134,86 406,31,135,28 407,72,135,80 409,12,136,43 410,52,137,16 411,92,138,00 413,33,138,94 414,73,139,98 416,13,141,12 417,54,142,36 418,94,143,70 420,34,145,14 421,74,146,68 423,15,148,32 424,55,150,05 425,95,151,88 427,35,153,80 428,76,155,82 430,16,157,93 431,56,160,12 432,97,162,41 434,37,164,78 435,77,167,24 437,17,169,78 438,58,172,41 439,98,175,11 441,38,177,90 442,79,180,76 444,19,183,70 445,59,186,71 446,99,189,79 448,40,192,95 449,80,196,17 451,20,199,46 452,61,202,81 454,01,206,22 455,41,209,69 456,81,213,22 458,22,216,81 459,62,220,44 461,02,224,13 462,42,227,87 463,83,231,65 465,23,235,47 466,63,239,34 468,04,243,24 469,44,247,18 470,84,251,16 472,24,255,16 473,65,259,20 475,05,263,25 476,45,267,34 477,86,271,44 479,26,275,56 480,66,279,70 482,06,283,85 483,47,288,01 484,87,292,17 486,27,296,35 487,68,300,52 489,08,304,70 490,48,308,87 491,88,313,03 493,29,317,19 494,69,321,34 496,09,325,47 497,49,329,59 498,90,333,69 500,30,337,76 501,70,341,82 503,11,345,84 504,51,349,84 505,91,353,80 507,31,357,74 508,72,361,63 510,12,365,49 511,52,369,30 512,93,373,07 514,33,376,80 515,73,380,47 517,13,384,10 518,54,387,67 519,94,391,18 521,34,394,64 522,75,398,04 524,15,401,37 525,55,404,64 526,95,407,85 528,36,410,98 529,76,414,05 531,16,417,04 532,57,419,96 533,97,422,81 535,37,425,57 536,77,428,26 538,18,430,86 539,58,433,38 540,98,435,82 542,38,438,17 543,79,440,43 545,19,442,61 546,59,444,69 548,00,446,68 549,40,448,58 550,80,450,39 552,20,452,10 553,61,453,71 555,01,455,23 556,41,456,64 557,82,457,96 559,22,459,18 560,62,460,29 562,02,461,31 563,43,462,22 564,83,463,03 566,23,463,74 567,64,464,34 569,04,464,84 570,44,465,23 571,84,465,52 573,25,465,70 574,65,465,78 576,05,465,76 577,45,465,63 578,86,465,39 580,26,465,05 581,66,464,60 583,07,464,05 584,47,463,40 585,87,462,64 587,27,461,78 588,68,460,81 590,08,459,75 591,48,458,58 592,89,457,31 594,29,455,95 595,69,454,48 597,09,452,92 598,50,451,25 599,90,449,50 601,30,447,65 602,71,445,70 604,11,443,66 605,51,441,53 606,91,439,31 608,32,437,01 609,72,434,61 611,12,432,13 612,53,429,57 613,93,426,93 615,33,424,20 616,73,421,39 618,14,418,51 619,54,415,56 620,94,412,53 622,34,409,42 623,75,406,25 625,15,403,02 626,55,399,71 627,96,396,35 629,36,392,92 630,76,389,43 632,16,385,89 633,57,382,29 634,97,378,64 636,37,374,94 637,78,371,19 639,18,367,40 640,58,363,56 641,98,359,69 643,39,355,77 644,79,351,83 646,19,347,84 647,60,343,83 649,00,339,79 650,40,335,73 651,80,331,64 653,21,327,53 654,61,323,41 656,01,319,27 657,41,315,11 658,82,310,95 660,22,306,78 661,62,302,61 663,03,298,43 664,43,294,26 665,83,290,09 667,23,285,93 668,64,281,77 670,04,277,63 671,44,273,50 672,85,269,39 674,25,265,29 675,65,261,22 677,05,257,18 678,46,253,16 679,86,249,17 681,26,245,21 682,67,241,29 684,07,237,40 685,47,233,56 686,87,229,75 688,28,225,99 689,68,222,28 691,08,218,62 692,48,215,01 693,89,211,45 695,29,207,95 696,69,204,51 698,10,201,12 699,50,197,80 700,90,194,55 702,30,191,36 703,71,188,24 705,11,185,19 706,51,182,22 707,92,179,32 709,32,176,49 710,72,173,75 712,12,171,08 713,53,168,50 714,93,166,00 716,33,163,58 717,74,161,25 719,14,159,01 720,54,156,86 721,94,154,80 723,35,152,83 724,75,150,96 726,15,149,18 727,56,147,49 728,96,145,90 730,36,144,41 731,76,143,02 733,17,141,73 734,57,140,53 735,97,139,44 737,37,138,45 738,78,137,57 740,18,136,78 741,58,136,10 742,99,135,53 744,39,135,05 745,79,134,69 747,19,134,42 748,60,134,27 750,00,134,21 "/>
  </g>
  <g stroke="blue" stroke-width="1,5" fill="none">
    <polyline points="50,00,508,33 51,40,507,50 52,81,506,66 54,21,505,83 55,61,504,99 57,01,504,16 58,42,503,32 59,82,502,49 61,22,501,65 62,63,500,82 64,03,499,98 65,43,499,15 66,83,498,31 68,24,497,48 69,64,496,64 71,04,495,81 72,44,494,97 73,85,494,14 75,25,493,30 76,65,492,47 78,06,491,63 79,46,490,80 80,86,489,96 82,26,489,13 83,67,488,29 85,07,487,46 86,47,486,62 87,88,485,79 89,28,484,95 90,68,484,12 92,08,483,28 93,49,482,45 94,89,481,61 96,29,480,78 97,70,479,94 99,10,479,11 100,50,478,27 101,90,477,44 103,31,476,60 104,71,475,77 106,11,474,93 107,52,474,10 108,92,473,26 110,32,472,43 111,72,471,59 113,13,470,76 114,53,469,92 115,93,469,09 117,33,468,25 118,74,467,42 120,14,466,58 121,54,465,75 122,95,464,91 124,35,464,08 125,75,463,24 127,15,462,41 128,56,461,57 129,96,460,74 131,36,459,90 132,77,459,07 134,17,458,23 135,57,457,40 136,97,456,56 138,38,455,73 139,78,454,89 141,18,454,06 142,59,453,22 143,99,452,39 145,39,451,55 146,79,450,72 148,20,449,88 149,60,449,05 151,00,448,21 152,40,447,38 153,81,446,54 155,21,445,71 156,61,444,87 158,02,444,04 159,42,443,20 160,82,442,37 162,22,441,53 163,63,440,70 165,03,439,86 166,43,439,03 167,84,438,19 169,24,437,36 170,64,436,52 172,04,435,69 173,45,434,85 174,85,434,02 176,25,433,18 177,66,432,35 179,06,431,51 180,46,430,68 181,86,429,84 183,27,429,01 184,67,428,17 186,07,427,34 187,47,426,50 188,88,425,67 190,28,424,83 191,68,424,00 193,09,423,16 194,49,422,33 195,89,421,49 197,29,420,66 198,70,419,82 200,10,418,99 201,50,418,15 202,91,417,32 204,31,416,48 205,71,415,65 207,11,414,81 208,52,413,98 209,92,413,14 211,32,412,31 212,73,411,47 214,13,410,64 215,53,409,80 216,93,408,97 218,34,408,13 219,74,407,30 221,14,406,46 222,55,405,63 223,95,404,79 225,35,403,96 226,75,403,12 228,16,402,29 229,56,401,45 230,96,400,62 232,36,399,78 233,77,398,95 235,17,398,11 236,57,397,28 237,98,396,44 239,38,395,61 240,78,394,77 242,18,393,94 243,59,393,10 244,99,392,27 246,39,391,43 247,80,390,60 249,20,389,76 250,60,388,93 252,00,388,09 253,41,387,26 254,81,386,42 256,21,385,59 257,62,384,75 259,02,383,92 260,42,383,08 261,82,382,25 263,23,381,41 264,63,380,58 266,03,379,74 267,43,378,91 268,84,378,07 270,24,377,24 271,64,376,40 273,05,375,57 274,45,374,73 275,85,373,90 277,25,373,06 278,66,372,23 280,06,371,39 281,46,370,56 282,87,369,72 284,27,368,89 285,67,368,05 287,07,367,22 288,48,366,38 289,88,365,55 291,28,364,71 292,69,363,88 294,09,363,04 295,49,362,21 296,89,361,37 298,30,360,54 299,70,359,70 301,10,358,87 302,51,358,03 303,91,357,20 305,31,356,36 306,71,355,53 308,12,354,69 309,52,353,86 310,92,353,02 312,32,352,19 313,73,351,35 315,13,350,52 316,53,349,68 317,94,348,85 319,34,348,01 320,74,347,18 322,14,346,34 323,55,345,51 324,95,344,67 326,35,343,84 327,76,343,00 329,16,342,17 330,56,341,33 331,96,340,50 333,37,339,66 334,77,338,83 336,17,337,99 337,58,337,16 338,98,336,32 340,38,335,49 341,78,334,65 343,19,333,82 344,59,332,98 345,99,332,15 347,39,331,31 348,80,330,48 350,20,329,64 351,60,328,81 353,01,327,97 354,41,327,14 355,81,326,30 357,21,325,47 358,62,324,63 360,02,323,80 361,42,322,96 362,83,322,13 364,23,321,29 365,63,320,46 367,03,319,62 368,44,318,79 369,84,317,95 371,24,317,12 372,65,316,28 374,05,315,45 375,45,314,61 376,85,313,78 378,26,312,94 379,66,312,11 381,06,311,27 382,46,310,44 383,87,309,60 385,27,308,77 386,67,307,93 388,08,307,10 389,48,306,26 390,88,305,43 392,28,304,59 393,69,303,76 395,09,302,92 396,49,302,09 397,90,301,25 399,30,300,42 400,70,299,58 402,10,298,75 403,51,297,91 404,91,297,08 406,31,296,24 407,72,295,41 409,12,294,57 410,52,293,74 411,92,292,90 413,33,292,07 414,73,291,23 416,13,290,40 417,54,289,56 418,94,288,73 420,34,287,89 421,74,287,06 423,15,286,22 424,55,285,39 425,95,284,55 427,35,283,72 428,76,282,88 430,16,282,05 431,56,281,21 432,97,280,38 434,37,279,54 435,77,278,71 437,17,277,87 438,58,277,04 439,98,276,20 441,38,275,37 442,79,274,53 444,19,273,70 445,59,272,86 446,99,272,03 448,40,271,19 449,80,270,36 451,20,269,52 452,61,268,69 454,01,267,85 455,41,267,02 456,81,266,18 458,22,265,35 459,62,264,51 461,02,263,68 462,42,262,84 463,83,262,01 465,23,261,17 466,63,260,34 468,04,259,50 469,44,258,67 470,84,257,83 472,24,257,00 473,65,256,16 475,05,255,33 476,45,254,49 477,86,253,66 479,26,252,82 480,66,251,99 482,06,251,15 483,47,250,32 484,87,249,48 486,27,248,65 487,68,247,81 489,08,246,98 490,48,246,14 491,88,245,31 493,29,244,47 494,69,243,64 496,09,242,80 497,49,241,97 498,90,241,13 500,30,240,30 501,70,239,46 503,11,238,63 504,51,237,79 505,91,236,96 507,31,236,12 508,72,235,29 510,12,234,45 511,52,233,62 512,93,232,78 514,33,231,95 515,73,231,11 517,13,230,28 518,54,229,44 519,94,228,61 521,34,227,77 522,75,226,94 524,15,226,10 525,55,225,27 526,95,224,43 528,36,223,60 529,76,222,76 531,16,221,93 532,57,221,09 533,97,220,26 535,37,219,42 536,77,218,59 538,18,217,75 539,58,216,92 540,98,216,08 542,38,215,25 543,79,214,41 545,19,213,58 546,59,212,74 548,00,211,91 549,40,211,07 550,80,210,24 552,20,209,40 553,61,208,57 555,01,207,73 556,41,206,90 557,82,206,06 559,22,205,23 560,62,204,39 562,02,203,56 563,43,202,72 564,83,201,89 566,23,201,05 567,64,200,22 569,04,199,38 570,44,198,55 571,84,197,71 573,25,196,88 574,65,196,04 576,05,195,21 577,45,194,37 578,86,193,54 580,26,192,70 581,66,191,87 583,07,191,03 584,47,190,20 585,87,189,36 587,27,188,53 588,68,187,69 590,08,186,86 591,48,186,02 592,89,185,19 594,29,184,35 595,69,183,52 597,09,182,68 598,50,181,85 599,90,181,01 601,30,180,18 602,71,179,34 604,11,178,51 605,51,177,67 606,91,176,84 608,32,176,00 609,72,175,17 611,12,174,33 612,53,173,50 613,93,172,66 615,33,171,83 616,73,170,99 618,14,170,16 619,54,169,32 620,94,168,49 622,34,167,65 623,75,166,82 625,15,165,98 626,55,165,15 627,96,164,31 629,36,163,48 630,76,162,64 632,16,161,81 633,57,160,97 634,97,160,14 636,37,159,30 637,78,158,47 639,18,157,63 640,58,156,80 641,98,155,96 643,39,155,13 644,79,154,29 646,19,153,46 647,60,152,62 649,00,151,79 650,40,150,95 651,80,150,12 653,21,149,28 654,61,148,45 656,01,147,61 657,41,146,78 658,82,145,94 660,22,145,11 661,62,144,27 663,03,143,44 664,43,142,60 665,83,141,77 667,23,140,93 668,64,140,10 670,04,139,26 671,44,138,43 672,85,137,59 674,25,136,76 675,65,135,92 677,05,135,09 678,46,134,25 679,86,133,42 681,26,132,58 682,67,131,75 684,07,130,91 685,47,130,08 686,87,129,24 688,28,128,41 689,68,127,57 691,08,126,74 692,48,125,90 693,89,125,07 695,29,124,23 696,69,123,40 698,10,122,56 699,50,121,73 700,90,120,89 702,30,120,06 703,71,119,22 705,11,118,39 706,51,117,55 707,92,116,72 709,32,115,88 710,72,115,05 712,12,114,21 713,53,113,38 714,93,112,54 716,33,111,71 717,74,110,87 719,14,110,04 720,54,109,20 721,94,108,37 723,35,107,53 724,75,106,70 726,15,105,86 727,56,105,03 728,96,104,19 730,36,103,36 731,76,102,52 733,17,101,69 734,57,100,85 735,97,100,02 737,37,99,18 738,78,98,35 740,18,97,51 741,58,96,68 742,99,95,84 744,39,95,01 745,79,94,17 747,19,93,34 748,60,92,50 750,00,91,67 "/>
  </g>
  <text x="400" y="30" text-anchor="middle" font-family="Arial" font-size="20" fill="black">Mathematical Functions</text>
  <text x="400" y="590" text-anchor="middle" font-family="Arial" font-size="14" fill="black">x</text>
  <text x="20" y="300" text-anchor="middle" font-family="Arial" font-size="14" fill="black" transform="rotate(-90 20 300)">f(x)</text>
  <line x1="650" y1="70" x2="670" y2="70" stroke="blue" stroke-width="2"/>
  <text x="675" y="74" font-family="Arial" font-size="12" fill="black">Sine</text>
  <line x1="650" y1="90" x2="670" y2="90" stroke="blue" stroke-width="2"/>
  <text x="675" y="94" font-family="Arial" font-size="12" fill="black">Cosine</text>
  <line x1="650" y1="110" x2="670" y2="110" stroke="blue" stroke-width="2"/>
  <text x="675" y="114" font-family="Arial" font-size="12" fill="black">Linear</text>
</svg>
